<svg width="375" height="768" viewBox="0 0 375 768" fill="none" xmlns="http://www.w3.org/2000/svg">
<rect width="375" height="768" fill="white"/>
<mask id="path-1-outside-1_92_915" maskUnits="userSpaceOnUse" x="50.6957" y="325.735" width="274" height="209" fill="black">
<rect fill="white" x="50.6957" y="325.735" width="274" height="209"/>
<path d="M299.56 334.487C310.472 353.959 316.13 375.935 315.978 398.255C315.826 420.576 309.868 442.472 298.691 461.793C287.515 481.114 271.503 497.195 252.23 508.454C232.957 519.713 211.086 525.764 188.766 526.012C166.447 526.26 144.447 520.696 124.929 509.867C105.411 499.038 89.0458 483.318 77.4427 464.249C65.8397 445.181 59.3977 423.422 58.7499 401.111C58.1021 378.799 63.2708 356.703 73.7479 336.994L74.8838 337.598C64.5114 357.11 59.3945 378.985 60.0358 401.074C60.6771 423.162 67.0547 444.703 78.5417 463.581C90.0287 482.458 106.23 498.022 125.553 508.742C144.876 519.463 166.656 524.971 188.752 524.726C210.848 524.48 232.501 518.49 251.581 507.343C270.661 496.196 286.513 480.277 297.578 461.149C308.643 442.021 314.541 420.344 314.692 398.247C314.842 376.149 309.241 354.393 298.438 335.116L299.56 334.487Z"/>
</mask>
<path d="M299.56 334.487C310.472 353.959 316.13 375.935 315.978 398.255C315.826 420.576 309.868 442.472 298.691 461.793C287.515 481.114 271.503 497.195 252.23 508.454C232.957 519.713 211.086 525.764 188.766 526.012C166.447 526.26 144.447 520.696 124.929 509.867C105.411 499.038 89.0458 483.318 77.4427 464.249C65.8397 445.181 59.3977 423.422 58.7499 401.111C58.1021 378.799 63.2708 356.703 73.7479 336.994L74.8838 337.598C64.5114 357.11 59.3945 378.985 60.0358 401.074C60.6771 423.162 67.0547 444.703 78.5417 463.581C90.0287 482.458 106.23 498.022 125.553 508.742C144.876 519.463 166.656 524.971 188.752 524.726C210.848 524.48 232.501 518.49 251.581 507.343C270.661 496.196 286.513 480.277 297.578 461.149C308.643 442.021 314.541 420.344 314.692 398.247C314.842 376.149 309.241 354.393 298.438 335.116L299.56 334.487Z" fill="#C8F751"/>
<path d="M299.56 334.487C310.472 353.959 316.13 375.935 315.978 398.255C315.826 420.576 309.868 442.472 298.691 461.793C287.515 481.114 271.503 497.195 252.23 508.454C232.957 519.713 211.086 525.764 188.766 526.012C166.447 526.26 144.447 520.696 124.929 509.867C105.411 499.038 89.0458 483.318 77.4427 464.249C65.8397 445.181 59.3977 423.422 58.7499 401.111C58.1021 378.799 63.2708 356.703 73.7479 336.994L74.8838 337.598C64.5114 357.11 59.3945 378.985 60.0358 401.074C60.6771 423.162 67.0547 444.703 78.5417 463.581C90.0287 482.458 106.23 498.022 125.553 508.742C144.876 519.463 166.656 524.971 188.752 524.726C210.848 524.48 232.501 518.49 251.581 507.343C270.661 496.196 286.513 480.277 297.578 461.149C308.643 442.021 314.541 420.344 314.692 398.247C314.842 376.149 309.241 354.393 298.438 335.116L299.56 334.487Z" stroke="#C8F751" stroke-width="16" stroke-linejoin="round" mask="url(#path-1-outside-1_92_915)"/>
<mask id="path-2-outside-2_92_915" maskUnits="userSpaceOnUse" x="107.696" y="260.735" width="157" height="39" fill="black">
<rect fill="white" x="107.696" y="260.735" width="157" height="39"/>
<path d="M116.121 290.247C136.872 276.452 161.183 268.981 186.099 268.741C211.016 268.501 235.466 275.502 256.479 288.895L255.787 289.979C234.985 276.721 210.779 269.789 186.112 270.027C161.444 270.265 137.377 277.661 116.833 291.318L116.121 290.247Z"/>
</mask>
<path d="M116.121 290.247C136.872 276.452 161.183 268.981 186.099 268.741C211.016 268.501 235.466 275.502 256.479 288.895L255.787 289.979C234.985 276.721 210.779 269.789 186.112 270.027C161.444 270.265 137.377 277.661 116.833 291.318L116.121 290.247Z" fill="#C8F751"/>
<path d="M116.121 290.247C136.872 276.452 161.183 268.981 186.099 268.741C211.016 268.501 235.466 275.502 256.479 288.895L255.787 289.979C234.985 276.721 210.779 269.789 186.112 270.027C161.444 270.265 137.377 277.661 116.833 291.318L116.121 290.247Z" stroke="#C8F751" stroke-width="16" stroke-linejoin="round" mask="url(#path-2-outside-2_92_915)"/>
<mask id="path-3-outside-3_92_915" maskUnits="userSpaceOnUse" x="237.443" y="234" width="122" height="122" fill="black">
<rect fill="white" x="237.443" y="234" width="122" height="122"/>
<path d="M245.755 283.53C247.886 274.101 252.543 265.429 259.227 258.444C265.911 251.46 274.369 246.425 283.695 243.88C293.021 241.335 302.864 241.375 312.169 243.997C321.474 246.619 329.891 251.723 336.516 258.763C343.142 265.802 347.728 274.512 349.782 283.959C351.835 293.405 351.28 303.233 348.176 312.388C345.071 321.543 339.534 329.681 332.157 335.93C324.781 342.178 315.843 346.302 306.302 347.859L306.216 347.333C315.662 345.792 324.51 341.709 331.813 335.523C339.115 329.337 344.597 321.281 347.671 312.217C350.745 303.153 351.294 293.424 349.261 284.072C347.228 274.72 342.688 266.097 336.128 259.128C329.569 252.159 321.237 247.105 312.025 244.51C302.813 241.914 293.068 241.874 283.835 244.394C274.602 246.913 266.229 251.898 259.612 258.813C252.995 265.728 248.385 274.313 246.274 283.648L245.755 283.53Z"/>
</mask>
<path d="M245.755 283.53C247.886 274.101 252.543 265.429 259.227 258.444C265.911 251.46 274.369 246.425 283.695 243.88C293.021 241.335 302.864 241.375 312.169 243.997C321.474 246.619 329.891 251.723 336.516 258.763C343.142 265.802 347.728 274.512 349.782 283.959C351.835 293.405 351.28 303.233 348.176 312.388C345.071 321.543 339.534 329.681 332.157 335.93C324.781 342.178 315.843 346.302 306.302 347.859L306.216 347.333C315.662 345.792 324.51 341.709 331.813 335.523C339.115 329.337 344.597 321.281 347.671 312.217C350.745 303.153 351.294 293.424 349.261 284.072C347.228 274.72 342.688 266.097 336.128 259.128C329.569 252.159 321.237 247.105 312.025 244.51C302.813 241.914 293.068 241.874 283.835 244.394C274.602 246.913 266.229 251.898 259.612 258.813C252.995 265.728 248.385 274.313 246.274 283.648L245.755 283.53Z" fill="#C8F751"/>
<path d="M245.755 283.53C247.886 274.101 252.543 265.429 259.227 258.444C265.911 251.46 274.369 246.425 283.695 243.88C293.021 241.335 302.864 241.375 312.169 243.997C321.474 246.619 329.891 251.723 336.516 258.763C343.142 265.802 347.728 274.512 349.782 283.959C351.835 293.405 351.28 303.233 348.176 312.388C345.071 321.543 339.534 329.681 332.157 335.93C324.781 342.178 315.843 346.302 306.302 347.859L306.216 347.333C315.662 345.792 324.51 341.709 331.813 335.523C339.115 329.337 344.597 321.281 347.671 312.217C350.745 303.153 351.294 293.424 349.261 284.072C347.228 274.72 342.688 266.097 336.128 259.128C329.569 252.159 321.237 247.105 312.025 244.51C302.813 241.914 293.068 241.874 283.835 244.394C274.602 246.913 266.229 251.898 259.612 258.813C252.995 265.728 248.385 274.313 246.274 283.648L245.755 283.53Z" stroke="#C8F751" stroke-width="16" stroke-linejoin="round" mask="url(#path-3-outside-3_92_915)"/>
<mask id="path-4-outside-4_92_915" maskUnits="userSpaceOnUse" x="15.554" y="234" width="122" height="122" fill="black">
<rect fill="white" x="15.554" y="234" width="122" height="122"/>
<path d="M128.95 282.304C126.624 273.04 121.85 264.571 115.129 257.785C108.407 250.999 99.9847 246.145 90.7433 243.73C81.5019 241.316 71.7813 241.431 62.5994 244.062C53.4174 246.693 45.1117 251.745 38.5518 258.688C31.9919 265.63 27.4191 274.209 25.312 283.525C23.205 292.841 23.6413 302.553 26.5751 311.642C29.509 320.732 34.8326 328.866 41.9886 335.193C49.1446 341.519 57.8698 345.806 67.2508 347.603L67.351 347.08C58.0639 345.3 49.426 341.057 42.3415 334.794C35.2571 328.53 29.9867 320.478 27.0822 311.479C24.1776 302.48 23.7457 292.866 25.8317 283.643C27.9176 274.419 32.4447 265.927 38.939 259.053C45.4333 252.18 53.656 247.179 62.7461 244.574C71.8363 241.969 81.4596 241.856 90.6086 244.246C99.7576 246.636 108.096 251.442 114.75 258.16C121.405 264.878 126.131 273.262 128.433 282.434L128.95 282.304Z"/>
</mask>
<path d="M128.95 282.304C126.624 273.04 121.85 264.571 115.129 257.785C108.407 250.999 99.9847 246.145 90.7433 243.73C81.5019 241.316 71.7813 241.431 62.5994 244.062C53.4174 246.693 45.1117 251.745 38.5518 258.688C31.9919 265.63 27.4191 274.209 25.312 283.525C23.205 292.841 23.6413 302.553 26.5751 311.642C29.509 320.732 34.8326 328.866 41.9886 335.193C49.1446 341.519 57.8698 345.806 67.2508 347.603L67.351 347.08C58.0639 345.3 49.426 341.057 42.3415 334.794C35.2571 328.53 29.9867 320.478 27.0822 311.479C24.1776 302.48 23.7457 292.866 25.8317 283.643C27.9176 274.419 32.4447 265.927 38.939 259.053C45.4333 252.18 53.656 247.179 62.7461 244.574C71.8363 241.969 81.4596 241.856 90.6086 244.246C99.7576 246.636 108.096 251.442 114.75 258.16C121.405 264.878 126.131 273.262 128.433 282.434L128.95 282.304Z" fill="#C8F751"/>
<path d="M128.95 282.304C126.624 273.04 121.85 264.571 115.129 257.785C108.407 250.999 99.9847 246.145 90.7433 243.73C81.5019 241.316 71.7813 241.431 62.5994 244.062C53.4174 246.693 45.1117 251.745 38.5518 258.688C31.9919 265.63 27.4191 274.209 25.312 283.525C23.205 292.841 23.6413 302.553 26.5751 311.642C29.509 320.732 34.8326 328.866 41.9886 335.193C49.1446 341.519 57.8698 345.806 67.2508 347.603L67.351 347.08C58.0639 345.3 49.426 341.057 42.3415 334.794C35.2571 328.53 29.9867 320.478 27.0822 311.479C24.1776 302.48 23.7457 292.866 25.8317 283.643C27.9176 274.419 32.4447 265.927 38.939 259.053C45.4333 252.18 53.656 247.179 62.7461 244.574C71.8363 241.969 81.4596 241.856 90.6086 244.246C99.7576 246.636 108.096 251.442 114.75 258.16C121.405 264.878 126.131 273.262 128.433 282.434L128.95 282.304Z" stroke="#C8F751" stroke-width="16" stroke-linejoin="round" mask="url(#path-4-outside-4_92_915)"/>
<path d="M181.87 413.6C184.669 416.955 189.824 416.955 192.622 413.6L205.413 398.262C209.215 393.703 205.973 386.779 200.037 386.778H174.455C168.519 386.778 165.277 393.703 169.079 398.262L181.87 413.6Z" fill="#C8F751" stroke="#C8F751" stroke-width="8"/>
<path d="M87.3222 183.8L103.162 138.584H112.762L96.9222 183.8H87.3222ZM113.359 179V145.4H145.855V179H134.719V151.784L137.167 154.184H122.047L124.495 151.784V179H113.359ZM165.524 179.48C162.324 179.48 159.524 178.888 157.124 177.704C154.756 176.52 152.916 174.904 151.604 172.856C150.292 170.776 149.636 168.44 149.636 165.848C149.636 163.192 150.276 160.84 151.556 158.792C152.868 156.744 154.644 155.144 156.884 153.992C159.156 152.84 161.7 152.264 164.516 152.264C167.108 152.264 169.492 152.776 171.668 153.8C173.876 154.824 175.636 156.344 176.948 158.36C178.292 160.376 178.964 162.872 178.964 165.848C178.964 166.232 178.948 166.664 178.916 167.144C178.884 167.592 178.852 168.008 178.82 168.392H158.612V163.16H173.06L168.98 164.552C168.98 163.528 168.788 162.664 168.404 161.96C168.052 161.224 167.556 160.664 166.916 160.28C166.276 159.864 165.508 159.656 164.612 159.656C163.716 159.656 162.932 159.864 162.26 160.28C161.62 160.664 161.124 161.224 160.772 161.96C160.42 162.664 160.244 163.528 160.244 164.552V166.184C160.244 167.304 160.468 168.264 160.916 169.064C161.364 169.864 162.004 170.472 162.836 170.888C163.668 171.272 164.676 171.464 165.86 171.464C167.076 171.464 168.068 171.304 168.836 170.984C169.636 170.664 170.468 170.184 171.332 169.544L176.996 175.256C175.716 176.632 174.132 177.688 172.244 178.424C170.388 179.128 168.148 179.48 165.524 179.48ZM200.384 179.48C198.112 179.48 196.224 179 194.72 178.04C193.248 177.048 192.16 175.56 191.456 173.576C190.752 171.56 190.4 169 190.4 165.896C190.4 162.728 190.72 160.152 191.36 158.168C192.032 156.152 193.104 154.664 194.576 153.704C196.048 152.744 197.984 152.264 200.384 152.264C202.688 152.264 204.8 152.824 206.72 153.944C208.64 155.032 210.176 156.6 211.328 158.648C212.48 160.664 213.056 163.08 213.056 165.896C213.056 168.712 212.48 171.144 211.328 173.192C210.176 175.208 208.64 176.76 206.72 177.848C204.8 178.936 202.688 179.48 200.384 179.48ZM182.864 188.312V152.744H193.184V156.296L193.232 165.896L193.712 175.496V188.312H182.864ZM197.792 171.032C198.592 171.032 199.312 170.84 199.952 170.456C200.592 170.072 201.104 169.496 201.488 168.728C201.872 167.96 202.064 167.016 202.064 165.896C202.064 164.744 201.872 163.784 201.488 163.016C201.104 162.248 200.592 161.672 199.952 161.288C199.312 160.904 198.592 160.712 197.792 160.712C196.992 160.712 196.272 160.904 195.632 161.288C194.992 161.672 194.48 162.248 194.096 163.016C193.712 163.784 193.52 164.744 193.52 165.896C193.52 167.016 193.712 167.96 194.096 168.728C194.48 169.496 194.992 170.072 195.632 170.456C196.272 170.84 196.992 171.032 197.792 171.032ZM216.567 179V152.744H228.039L236.391 169.112H231.879L241.335 152.744H251.511L251.607 179H241.863L241.815 163.208L243.495 164.36L236.247 176.936H231.687L224.439 163.544L226.311 163.064V179H216.567ZM273.254 160.664C276.774 160.664 279.478 161.432 281.366 162.968C283.254 164.504 284.198 166.68 284.198 169.496C284.198 172.44 283.094 174.76 280.886 176.456C278.71 178.152 275.718 179 271.91 179H256.646V152.744H267.446V160.664H273.254ZM270.806 171.704C271.542 171.704 272.118 171.512 272.534 171.128C272.95 170.744 273.158 170.136 273.158 169.304C273.158 168.472 272.95 167.88 272.534 167.528C272.118 167.176 271.542 167 270.806 167H267.446V171.704H270.806Z" fill="#C8F751"/>
</svg>
