<svg width="343" height="301" viewBox="0 0 343 301" fill="none" xmlns="http://www.w3.org/2000/svg">
<g opacity="0.1">
<mask id="path-1-outside-1_101_299" maskUnits="userSpaceOnUse" x="34.6963" y="91.7343" width="274" height="209" fill="black">
<rect fill="white" x="34.6963" y="91.7343" width="274" height="209"/>
<path d="M283.561 100.487C294.473 119.959 300.131 141.934 299.979 164.255C299.826 186.575 293.869 208.472 282.692 227.793C271.515 247.114 255.503 263.194 236.23 274.454C216.957 285.713 195.086 291.764 172.767 292.012C150.447 292.259 128.448 286.695 108.929 275.867C89.4111 265.038 73.0463 249.317 61.4433 230.249C49.8403 211.181 43.3983 189.422 42.7505 167.11C42.1027 144.799 47.2713 122.703 57.7485 102.994L58.8844 103.597C48.512 123.11 43.395 144.985 44.0364 167.073C44.6777 189.161 51.0552 210.703 62.5422 229.58C74.0293 248.458 90.2304 264.021 109.553 274.742C128.876 285.462 150.656 290.971 172.753 290.725C194.849 290.48 216.501 284.49 235.582 273.343C254.662 262.196 270.513 246.276 281.579 227.149C292.644 208.021 298.541 186.343 298.692 164.246C298.843 142.149 293.242 120.393 282.439 101.116L283.561 100.487Z"/>
</mask>
<path d="M283.561 100.487C294.473 119.959 300.131 141.934 299.979 164.255C299.826 186.575 293.869 208.472 282.692 227.793C271.515 247.114 255.503 263.194 236.23 274.454C216.957 285.713 195.086 291.764 172.767 292.012C150.447 292.259 128.448 286.695 108.929 275.867C89.4111 265.038 73.0463 249.317 61.4433 230.249C49.8403 211.181 43.3983 189.422 42.7505 167.11C42.1027 144.799 47.2713 122.703 57.7485 102.994L58.8844 103.597C48.512 123.11 43.395 144.985 44.0364 167.073C44.6777 189.161 51.0552 210.703 62.5422 229.58C74.0293 248.458 90.2304 264.021 109.553 274.742C128.876 285.462 150.656 290.971 172.753 290.725C194.849 290.48 216.501 284.49 235.582 273.343C254.662 262.196 270.513 246.276 281.579 227.149C292.644 208.021 298.541 186.343 298.692 164.246C298.843 142.149 293.242 120.393 282.439 101.116L283.561 100.487Z" fill="#CECECE"/>
<path d="M283.561 100.487C294.473 119.959 300.131 141.934 299.979 164.255C299.826 186.575 293.869 208.472 282.692 227.793C271.515 247.114 255.503 263.194 236.23 274.454C216.957 285.713 195.086 291.764 172.767 292.012C150.447 292.259 128.448 286.695 108.929 275.867C89.4111 265.038 73.0463 249.317 61.4433 230.249C49.8403 211.181 43.3983 189.422 42.7505 167.11C42.1027 144.799 47.2713 122.703 57.7485 102.994L58.8844 103.597C48.512 123.11 43.395 144.985 44.0364 167.073C44.6777 189.161 51.0552 210.703 62.5422 229.58C74.0293 248.458 90.2304 264.021 109.553 274.742C128.876 285.462 150.656 290.971 172.753 290.725C194.849 290.48 216.501 284.49 235.582 273.343C254.662 262.196 270.513 246.276 281.579 227.149C292.644 208.021 298.541 186.343 298.692 164.246C298.843 142.149 293.242 120.393 282.439 101.116L283.561 100.487Z" stroke="#CECECE" stroke-width="16" stroke-linejoin="round" mask="url(#path-1-outside-1_101_299)"/>
<mask id="path-2-outside-2_101_299" maskUnits="userSpaceOnUse" x="91.6963" y="26.7343" width="157" height="39" fill="black">
<rect fill="white" x="91.6963" y="26.7343" width="157" height="39"/>
<path d="M100.122 56.246C120.873 42.4514 145.183 34.9802 170.1 34.7402C195.017 34.5002 219.467 41.5017 240.479 54.8941L239.788 55.9789C218.985 42.7205 194.78 35.789 170.112 36.0266C145.445 36.2642 121.377 43.6607 100.834 57.3173L100.122 56.246Z"/>
</mask>
<path d="M100.122 56.246C120.873 42.4514 145.183 34.9802 170.1 34.7402C195.017 34.5002 219.467 41.5017 240.479 54.8941L239.788 55.9789C218.985 42.7205 194.78 35.789 170.112 36.0266C145.445 36.2642 121.377 43.6607 100.834 57.3173L100.122 56.246Z" fill="#CECECE"/>
<path d="M100.122 56.246C120.873 42.4514 145.183 34.9802 170.1 34.7402C195.017 34.5002 219.467 41.5017 240.479 54.8941L239.788 55.9789C218.985 42.7205 194.78 35.789 170.112 36.0266C145.445 36.2642 121.377 43.6607 100.834 57.3173L100.122 56.246Z" stroke="#CECECE" stroke-width="16" stroke-linejoin="round" mask="url(#path-2-outside-2_101_299)"/>
<mask id="path-3-outside-3_101_299" maskUnits="userSpaceOnUse" x="221.444" y="0" width="122" height="122" fill="black">
<rect fill="white" x="221.444" width="122" height="122"/>
<path d="M229.755 49.5297C231.887 40.1003 236.544 31.4286 243.228 24.4438C249.911 17.459 258.369 12.4244 267.696 9.87935C277.022 7.33433 286.865 7.37488 296.17 9.99663C305.475 12.6184 313.891 17.7225 320.517 24.7622C327.143 31.8018 331.728 40.5115 333.782 49.9582C335.836 59.4048 335.281 69.2322 332.176 78.3875C329.072 87.5427 323.534 95.6806 316.158 101.929C308.781 108.178 299.844 112.302 290.303 113.859L290.217 113.333C299.663 111.791 308.511 107.709 315.813 101.523C323.116 95.3366 328.598 87.28 331.672 78.2164C334.745 69.1527 335.295 59.4235 333.262 50.0714C331.228 40.7192 326.689 32.0965 320.129 25.1273C313.57 18.1581 305.237 13.105 296.025 10.5094C286.813 7.9139 277.069 7.87376 267.836 10.3933C258.603 12.9129 250.229 17.8972 243.613 24.8121C236.996 31.7271 232.385 40.3121 230.275 49.6472L229.755 49.5297Z"/>
</mask>
<path d="M229.755 49.5297C231.887 40.1003 236.544 31.4286 243.228 24.4438C249.911 17.459 258.369 12.4244 267.696 9.87935C277.022 7.33433 286.865 7.37488 296.17 9.99663C305.475 12.6184 313.891 17.7225 320.517 24.7622C327.143 31.8018 331.728 40.5115 333.782 49.9582C335.836 59.4048 335.281 69.2322 332.176 78.3875C329.072 87.5427 323.534 95.6806 316.158 101.929C308.781 108.178 299.844 112.302 290.303 113.859L290.217 113.333C299.663 111.791 308.511 107.709 315.813 101.523C323.116 95.3366 328.598 87.28 331.672 78.2164C334.745 69.1527 335.295 59.4235 333.262 50.0714C331.228 40.7192 326.689 32.0965 320.129 25.1273C313.57 18.1581 305.237 13.105 296.025 10.5094C286.813 7.9139 277.069 7.87376 267.836 10.3933C258.603 12.9129 250.229 17.8972 243.613 24.8121C236.996 31.7271 232.385 40.3121 230.275 49.6472L229.755 49.5297Z" fill="#CECECE"/>
<path d="M229.755 49.5297C231.887 40.1003 236.544 31.4286 243.228 24.4438C249.911 17.459 258.369 12.4244 267.696 9.87935C277.022 7.33433 286.865 7.37488 296.17 9.99663C305.475 12.6184 313.891 17.7225 320.517 24.7622C327.143 31.8018 331.728 40.5115 333.782 49.9582C335.836 59.4048 335.281 69.2322 332.176 78.3875C329.072 87.5427 323.534 95.6806 316.158 101.929C308.781 108.178 299.844 112.302 290.303 113.859L290.217 113.333C299.663 111.791 308.511 107.709 315.813 101.523C323.116 95.3366 328.598 87.28 331.672 78.2164C334.745 69.1527 335.295 59.4235 333.262 50.0714C331.228 40.7192 326.689 32.0965 320.129 25.1273C313.57 18.1581 305.237 13.105 296.025 10.5094C286.813 7.9139 277.069 7.87376 267.836 10.3933C258.603 12.9129 250.229 17.8972 243.613 24.8121C236.996 31.7271 232.385 40.3121 230.275 49.6472L229.755 49.5297Z" stroke="#CECECE" stroke-width="16" stroke-linejoin="round" mask="url(#path-3-outside-3_101_299)"/>
<mask id="path-4-outside-4_101_299" maskUnits="userSpaceOnUse" x="-0.445557" y="0" width="122" height="122" fill="black">
<rect fill="white" x="-0.445557" width="122" height="122"/>
<path d="M112.951 48.3033C110.625 39.0393 105.851 30.5709 99.1293 23.7848C92.4076 16.9986 83.9852 12.1443 74.7438 9.73001C65.5023 7.31572 55.7818 7.43026 46.5999 10.0616C37.4179 12.693 29.1122 17.7444 22.5523 24.6871C15.9924 31.6297 11.4195 40.2082 9.31251 49.5245C7.20547 58.8408 7.64174 68.5522 10.5756 77.642C13.5095 86.7318 18.8331 94.8657 25.9891 101.192C33.1451 107.519 41.8703 111.805 51.2512 113.603L51.3515 113.079C42.0644 111.3 33.4265 107.056 26.342 100.793C19.2576 94.5299 13.9872 86.4773 11.0826 77.4783C8.17809 68.4794 7.74619 58.8651 9.83215 49.642C11.9181 40.4189 16.4452 31.9262 22.9395 25.053C29.4338 18.1798 37.6565 13.1788 46.7466 10.5738C55.8368 7.96873 65.4601 7.85534 74.6091 10.2455C83.7581 12.6356 92.0963 17.4414 98.7508 24.1597C105.405 30.878 110.131 39.2616 112.434 48.433L112.951 48.3033Z"/>
</mask>
<path d="M112.951 48.3033C110.625 39.0393 105.851 30.5709 99.1293 23.7848C92.4076 16.9986 83.9852 12.1443 74.7438 9.73001C65.5023 7.31572 55.7818 7.43026 46.5999 10.0616C37.4179 12.693 29.1122 17.7444 22.5523 24.6871C15.9924 31.6297 11.4195 40.2082 9.31251 49.5245C7.20547 58.8408 7.64174 68.5522 10.5756 77.642C13.5095 86.7318 18.8331 94.8657 25.9891 101.192C33.1451 107.519 41.8703 111.805 51.2512 113.603L51.3515 113.079C42.0644 111.3 33.4265 107.056 26.342 100.793C19.2576 94.5299 13.9872 86.4773 11.0826 77.4783C8.17809 68.4794 7.74619 58.8651 9.83215 49.642C11.9181 40.4189 16.4452 31.9262 22.9395 25.053C29.4338 18.1798 37.6565 13.1788 46.7466 10.5738C55.8368 7.96873 65.4601 7.85534 74.6091 10.2455C83.7581 12.6356 92.0963 17.4414 98.7508 24.1597C105.405 30.878 110.131 39.2616 112.434 48.433L112.951 48.3033Z" fill="#CECECE"/>
<path d="M112.951 48.3033C110.625 39.0393 105.851 30.5709 99.1293 23.7848C92.4076 16.9986 83.9852 12.1443 74.7438 9.73001C65.5023 7.31572 55.7818 7.43026 46.5999 10.0616C37.4179 12.693 29.1122 17.7444 22.5523 24.6871C15.9924 31.6297 11.4195 40.2082 9.31251 49.5245C7.20547 58.8408 7.64174 68.5522 10.5756 77.642C13.5095 86.7318 18.8331 94.8657 25.9891 101.192C33.1451 107.519 41.8703 111.805 51.2512 113.603L51.3515 113.079C42.0644 111.3 33.4265 107.056 26.342 100.793C19.2576 94.5299 13.9872 86.4773 11.0826 77.4783C8.17809 68.4794 7.74619 58.8651 9.83215 49.642C11.9181 40.4189 16.4452 31.9262 22.9395 25.053C29.4338 18.1798 37.6565 13.1788 46.7466 10.5738C55.8368 7.96873 65.4601 7.85534 74.6091 10.2455C83.7581 12.6356 92.0963 17.4414 98.7508 24.1597C105.405 30.878 110.131 39.2616 112.434 48.433L112.951 48.3033Z" stroke="#CECECE" stroke-width="16" stroke-linejoin="round" mask="url(#path-4-outside-4_101_299)"/>
<path d="M165.871 179.599C168.669 182.955 173.824 182.955 176.623 179.599L189.414 164.261C193.216 159.703 189.974 152.778 184.038 152.778H158.456C152.52 152.778 149.278 159.703 153.08 164.261L165.871 179.599Z" fill="#CECECE" stroke="#CECECE" stroke-width="8"/>
</g>
</svg>
