<svg width="31" height="31" viewBox="0 0 31 31" fill="none" xmlns="http://www.w3.org/2000/svg">
<path d="M0.5 2.80769V28.1923C0.5 29.4668 1.53319 30.5 2.80769 30.5H28.1923C29.4668 30.5 30.5 29.4668 30.5 28.1923V2.80769C30.5 1.53319 29.4668 0.5 28.1923 0.5H2.80769C1.53319 0.5 0.5 1.53319 0.5 2.80769Z" stroke="#CECECE" stroke-linecap="round" stroke-linejoin="round"/>
<path d="M9.73096 24.7308V13.1924" stroke="#CECECE" stroke-linecap="round" stroke-linejoin="round"/>
<path d="M9.73083 13.1924C11.6426 13.1924 13.1924 11.6426 13.1924 9.73083C13.1924 7.81906 11.6426 6.26929 9.73083 6.26929C7.81906 6.26929 6.26929 7.81906 6.26929 9.73083C6.26929 11.6426 7.81906 13.1924 9.73083 13.1924Z" stroke="#CECECE" stroke-linecap="round" stroke-linejoin="round"/>
<path d="M21.269 6.26929V13.1924" stroke="#CECECE" stroke-linecap="round" stroke-linejoin="round"/>
<path d="M21.269 20.1154V24.7307" stroke="#CECECE" stroke-linecap="round" stroke-linejoin="round"/>
<path d="M21.2694 20.1155C23.1811 20.1155 24.7309 18.5657 24.7309 16.6539C24.7309 14.7422 23.1811 13.1924 21.2694 13.1924C19.3576 13.1924 17.8079 14.7422 17.8079 16.6539C17.8079 18.5657 19.3576 20.1155 21.2694 20.1155Z" stroke="#CECECE" stroke-linecap="round" stroke-linejoin="round"/>
</svg>
